<svg version="1.1" xmlns="http://www.w3.org/2000/svg" width="1024" height="1024">
<path d="M0 0 C2.9375 2.5 2.9375 2.5 5 5 C5 5.66 5 6.32 5 7 C5.99 7.33 6.98 7.66 8 8 C5 9 5 9 2 8 C1.34 8.33 0.68 8.66 0 9 C-0.66 8.67 -1.32 8.34 -2 8 C-1.67 9.98 -1.34 11.96 -1 14 C-1.99 14 -2.98 14 -4 14 C-4.37125 15.6396875 -4.37125 15.6396875 -4.75 17.3125 C-6.02002851 21.05908409 -6.65756352 22.10595266 -10 24 C-8.7260411 26.03833424 -7.38938077 28.03852126 -6 30 C-5.34 30 -4.68 30 -4 30 C-4.33 31.65 -4.66 33.3 -5 35 C-7.97 34.67 -10.94 34.34 -14 34 C-14 34.66 -14 35.32 -14 36 C-11.82443801 37.32087692 -10.56899513 38.07112439 -8 37.75 C-5.16775585 36.68790844 -2.7499199 35.77974626 -0.625 33.5703125 C1.12715582 31.87712346 2.77486489 30.86244954 4.9375 29.75 C5.60652344 29.39421875 6.27554687 29.0384375 6.96484375 28.671875 C9.38269269 27.87366 10.63011757 28.17292694 13 29 C13.12375 28.38125 13.2475 27.7625 13.375 27.125 C14 25 14 25 16 23 C19.125 22.875 19.125 22.875 22 23 C22.33 21.35 22.66 19.7 23 18 C26.13349732 16.95550089 26.98968256 17.06576355 30 18 C30.28875 17.360625 30.5775 16.72125 30.875 16.0625 C32 14 32 14 34 13 C39.17237428 13.04064734 43.93805532 13.57273418 48 17 C48.8125 19.1875 48.8125 19.1875 49 21 C47 22 47 22 43.875 21.0625 C42.92625 20.711875 41.9775 20.36125 41 20 C41.309375 21.3921875 41.309375 21.3921875 41.625 22.8125 C42 26 42 26 40 29 C38.35 28.67 36.7 28.34 35 28 C34.855625 28.804375 34.71125 29.60875 34.5625 30.4375 C34 33 34 33 33 34 C31.33382885 34.04063832 29.66611905 34.042721 28 34 C28.350625 34.7425 28.70125 35.485 29.0625 36.25 C30 39 30 39 29 43 C26.03 43.33 23.06 43.66 20 44 C20 44.99 20 45.98 20 47 C20.804375 46.814375 21.60875 46.62875 22.4375 46.4375 C23.7059375 46.2209375 23.7059375 46.2209375 25 46 C26 47 26 47 26.09765625 49.06640625 C26.08025391 50.30197266 26.08025391 50.30197266 26.0625 51.5625 C26.05347656 52.38878906 26.04445313 53.21507812 26.03515625 54.06640625 C26.01775391 55.02353516 26.01775391 55.02353516 26 56 C26.433125 55.21625 26.86625 54.4325 27.3125 53.625 C29 51 29 51 32 49 C32.78375 49.0825 33.5675 49.165 34.375 49.25 C35.24125 49.1675 36.1075 49.085 37 49 C38.16204339 47.45060881 39.32287226 45.90018141 40.46484375 44.3359375 C43.08782748 42.05334097 45.89009098 42.56180069 49.20703125 42.7890625 C49.79871094 42.85867187 50.39039063 42.92828125 51 43 C51.20882812 42.06027344 51.20882812 42.06027344 51.421875 41.1015625 C52.12999578 38.52744778 52.90920555 37.64276706 55 36 C57.3010809 34.9480773 59.63475197 34.12292001 62.03125 33.31640625 C63.09859375 32.94322266 63.09859375 32.94322266 64.1875 32.5625 C64.86167969 32.33691406 65.53585937 32.11132812 66.23046875 31.87890625 C68.35553363 31.00667646 68.35553363 31.00667646 70 28 C72.625 27.8125 72.625 27.8125 75 28 C75.061875 26.7625 75.12375 25.525 75.1875 24.25 C75.60917507 21.07900347 75.92729027 20.09088716 78 17.5 C82.10704672 15.44647664 85.49245238 15.19338622 90 16 C92.47776075 17.08212408 93.92336519 18.18960042 96 20 C96 20.66 96 21.32 96 22 C94.7625 21.7525 94.7625 21.7525 93.5 21.5 C89.58727683 20.94103955 85.94816827 20.93192813 82 21 C85.96 22.485 85.96 22.485 90 24 C90 25.32 90 26.64 90 28 C89.01 28 88.02 28 87 28 C86.74605469 28.69867188 86.49210937 29.39734375 86.23046875 30.1171875 C85.71419922 31.48230469 85.71419922 31.48230469 85.1875 32.875 C84.85105469 33.77992187 84.51460937 34.68484375 84.16796875 35.6171875 C83 38 83 38 80 40 C79.71125 41.11375 79.4225 42.2275 79.125 43.375 C77.82277754 47.57105016 76.42917938 48.45009739 73 51 C72.13034494 53.12946603 72.13034494 53.12946603 72 55 C72.66 54.34 73.32 53.68 74 53 C76.29089796 52.46146802 78.58034054 52.11274024 80.90625 51.7578125 C83.1862654 51.17746672 83.1862654 51.17746672 84.28125 48.9296875 C84.63703125 47.97449219 84.63703125 47.97449219 85 47 C86.98 47 88.96 47 91 47 C91.04125 45.741875 91.0825 44.48375 91.125 43.1875 C91.40625 40.98046875 91.40625 40.98046875 92 39 C96.11764863 35.8627439 99.91682007 35.34106927 105 36 C108.18750407 38.18092383 108.87868068 39.47428296 109.75 43.25 C109.8325 44.1575 109.915 45.065 110 46 C107.69 45.34 105.38 44.68 103 44 C103.495 44.5775 103.99 45.155 104.5 45.75 C106 48 106 48 106 52 C104.35 52.66 102.7 53.32 101 54 C101 54.99 101 55.98 101 57 C101.66 57 102.32 57 103 57 C102.8125 59.375 102.8125 59.375 102 62 C99.4375 63.3125 99.4375 63.3125 97 64 C97.94875 64.309375 98.8975 64.61875 99.875 64.9375 C103 66 103 66 105 67 C105.7115625 65.5459375 105.7115625 65.5459375 106.4375 64.0625 C108 61 108 61 109 60 C110.68608966 59.92794489 112.37500659 59.91613932 114.0625 59.9375 C114.98160156 59.94652344 115.90070313 59.95554688 116.84765625 59.96484375 C117.55792969 59.97644531 118.26820313 59.98804688 119 60 C119.144375 59.030625 119.28875 58.06125 119.4375 57.0625 C120 54 120 54 121 53 C121.9075 53.103125 122.815 53.20625 123.75 53.3125 C127.29320195 53.33797622 127.29320195 53.33797622 129.6875 50.0625 C130.450625 49.051875 131.21375 48.04125 132 47 C133.485 46.505 133.485 46.505 135 46 C135.66 47.65 136.32 49.3 137 51 C136.1875 49.375 136.1875 49.375 136 47 C139.98461538 41.50769231 139.98461538 41.50769231 143 40 C148.63022941 39.32437247 151.76548226 40.61779199 156.3984375 43.515625 C158.29542054 45.27380441 158.62293934 46.47908015 159 49 C157 50 157 50 154.3984375 49.22265625 C152.90183594 48.64837891 152.90183594 48.64837891 151.375 48.0625 C150.37210938 47.68222656 149.36921875 47.30195312 148.3359375 46.91015625 C147.17964844 46.45962891 147.17964844 46.45962891 146 46 C146 46.66 146 47.32 146 48 C146.99 48.33 147.98 48.66 149 49 C149.6875 51.0625 149.6875 51.0625 150 53 C148.824375 53.0928125 148.824375 53.0928125 147.625 53.1875 C146.75875 53.455625 145.8925 53.72375 145 54 C144.731875 54.804375 144.46375 55.60875 144.1875 56.4375 C143 59 143 59 141.10546875 59.7734375 C139.08774151 60.26108436 137.04389925 60.63737271 135 61 C135.33 62.98 135.66 64.96 136 67 C132.49223216 68.60355101 129.85645121 69.22036864 126 69 C126.37125 70.11375 126.37125 70.11375 126.75 71.25 C127 74 127 74 125.3125 76.25 C123.08903214 77.93262433 121.72339328 78.61094382 119 79 C118.34 81.31 117.68 83.62 117 86 C117.33 85.34 117.66 84.68 118 84 C118.66 83.34 119.32 82.68 120 82 C122.02805144 82.03219129 124.05716114 82.06947478 126.08203125 82.1875 C128.3253363 82.1896626 128.3253363 82.1896626 130.125 79.5625 C130.74375 78.716875 131.3625 77.87125 132 77 C135.32888575 75.9597232 137.11512309 75.65070648 140.375 76.9375 C140.91125 77.288125 141.4475 77.63875 142 78 C142.66 76.35 143.32 74.7 144 73 C151.625 72 151.625 72 155 72 C155.845625 71.814375 156.69125 71.62875 157.5625 71.4375 C160 71 160 71 162 72 C162 72.66 162 73.32 162 74 C162.66 74 163.32 74 164 74 C164.33 72.68 164.66 71.36 165 70 C167.375 69.8125 167.375 69.8125 170 70 C170.66 70.99 171.32 71.98 172 73 C172.226875 72.195625 172.45375 71.39125 172.6875 70.5625 C173.120625 69.716875 173.55375 68.87125 174 68 C176.625 67.1875 176.625 67.1875 179 67 C180.98 69.64 182.96 72.28 185 75 C183.68 72.03 182.36 69.06 181 66 C182 65 182 65 184.25 64.5625 C188.38501532 65.22034335 189.56963393 67.7381929 192 71 C192.98290968 72.01680311 193.97334787 73.02738219 195 74 C194.34 75.32 193.68 76.64 193 78 C192.01 78 191.02 78 190 78 C189.67 78.99 189.34 79.98 189 81 C183.58461538 82.23076923 183.58461538 82.23076923 180.625 81.0625 C180.08875 80.711875 179.5525 80.36125 179 80 C178.67 81.65 178.34 83.3 178 85 C177.21625 85.0825 176.4325 85.165 175.625 85.25 C174.75875 85.4975 173.8925 85.745 173 86 C172.67 86.66 172.34 87.32 172 88 C171 90 171 90 168.8125 90.8125 C165.41630536 91.03891298 162.34412227 90.59013922 159 90 C158.67 91.98 158.34 93.96 158 96 C156.02 96.33 154.04 96.66 152 97 C152 98.32 152 99.64 152 101 C153.051875 100.484375 154.10375 99.96875 155.1875 99.4375 C158.48523767 98.00311817 160.5064368 97.83547893 164 99 C164.93065133 101.60582371 165.14917407 102.64198224 164.0625 105.25 C163.711875 105.8275 163.36125 106.405 163 107 C166.11332248 106.33131686 166.11332248 106.33131686 167.1875 103.9375 C167.455625 103.298125 167.72375 102.65875 168 102 C170.86724686 102.57344937 171.8614515 102.8614515 174 105 C175.98 103.02 175.98 103.02 178 101 C179.65 101.66 181.3 102.32 183 103 C184.32 101.35 185.64 99.7 187 98 C189.76276177 98.52268466 192.3260876 99.10869587 195 100 C195 99.34 195 98.68 195 98 C198.71104116 96.76298628 199.48862758 97.57873021 203 99 C203.825 98.95875 204.65 98.9175 205.5 98.875 C208.98161969 99.04908098 210.48848019 100.70375332 213 103 C213.268125 102.38125 213.53625 101.7625 213.8125 101.125 C215 99 215 99 218 97 C220.6875 97.375 220.6875 97.375 223 98 C223 98.99 223 99.98 223 101 C222.01 100.34 221.02 99.68 220 99 C220.33 99.33 220.66 99.66 221 100 C223 103 223 103 222.625 105.1875 C222.41875 105.785625 222.2125 106.38375 222 107 C221.67 106.01 221.34 105.02 221 104 C220.34 104 219.68 104 219 104 C218.8453125 105.3921875 218.8453125 105.3921875 218.6875 106.8125 C218 110 218 110 216.9375 111.875 C213.73943927 113.73193849 210.64481003 113.17925295 207 113 C206.67 114.32 206.34 115.64 206 117 C202.7 116.67 199.4 116.34 196 116 C195.34 117.98 194.68 119.96 194 122 C187.25 122.125 187.25 122.125 185 121 C185 121.99 185 122.98 185 124 C186.98 124 188.96 124 191 124 C191.33 124.99 191.66 125.98 192 127 C192.598125 126.814375 193.19625 126.62875 193.8125 126.4375 C196 126 196 126 199 127 C199 127.66 199 128.32 199 129 C201.86724686 128.42655063 202.8614515 128.1385485 205 126 C207.375 126.375 207.375 126.375 210 127 C211.32 127 212.64 127 214 127 C214.66 126.01 215.32 125.02 216 124 C216.94875 124.020625 217.8975 124.04125 218.875 124.0625 C220.421875 124.0315625 220.421875 124.0315625 222 124 C222.61875 123.34 223.2375 122.68 223.875 122 C226.35373656 119.66707147 226.97807709 119.72703914 230.25 119.75 C231.4875 119.8325 232.725 119.915 234 120 C234 118.68 234 117.36 234 116 C236.60582371 115.06934867 237.64198224 114.85082593 240.25 115.9375 C241.11625 116.4634375 241.11625 116.4634375 242 117 C242.66 115.35 243.32 113.7 244 112 C249.35048061 112.37328935 251.50912907 113.9957657 255 118 C255.66 116.68 256.32 115.36 257 114 C258 115 258 115 258.09765625 116.84765625 C258.06510417 118.8984375 258.03255208 120.94921875 258 123 C256.35 123 254.7 123 253 123 C253 122.01 253 121.02 253 120 C251.68 119.67 250.36 119.34 249 119 C247.515 122.465 247.515 122.465 246 126 C245.34 126 244.68 126 244 126 C243.34 127.98 242.68 129.96 242 132 C237.25 133 237.25 133 235 133 C234.67 134.65 234.34 136.3 234 138 C230.25 139.125 230.25 139.125 228 138 C228 139.32 228 140.64 228 142 C227.05125 142.061875 226.1025 142.12375 225.125 142.1875 C223.578125 142.5896875 223.578125 142.5896875 222 143 C221.67 143.825 221.34 144.65 221 145.5 C220.67 146.325 220.34 147.15 220 148 C216.05525663 149.22725349 212.96209657 149.04879027 209 148 C209.33 148.66 209.66 149.32 210 150 C210.039992 151.99960012 210.04346799 154.00047242 210 156 C210.66 156 211.32 156 212 156 C212.66 154.68 213.32 153.36 214 152 C214.9075 152.165 215.815 152.33 216.75 152.5 C220.2549536 153.03922363 223.47013043 153.0441558 227 152.75 C230 153 230 153 232.375 155 C233.179375 155.99 233.179375 155.99 234 157 C234.33 156.34 234.66 155.68 235 155 C237.375 154.875 237.375 154.875 240 155 C240.66 155.66 241.32 156.32 242 157 C242.6496875 155.2984375 242.6496875 155.2984375 243.3125 153.5625 C243.869375 152.386875 244.42625 151.21125 245 150 C248 149 248 149 251.35546875 150.43359375 C252.6380304 151.09148807 253.91524057 151.75989743 255.1875 152.4375 C255.84169922 152.77587891 256.49589844 153.11425781 257.16992188 153.46289062 C258.78459299 154.29969098 260.39292763 155.14869746 262 156 C261.67 156.66 261.34 157.32 261 158 C257.7 157.67 254.4 157.34 251 157 C251.66 158.32 252.32 159.64 253 161 C250.03619221 165.33171907 247.90712492 166.4338963 243 168 C242.505 168.70125 242.01 169.4025 241.5 170.125 C241.005 170.74375 240.51 171.3625 240 172 C236.87376745 172.31900332 234.82883747 172.41441874 232 171 C232.33 172.65 232.66 174.3 233 176 C234.485 175.01 234.485 175.01 236 174 C239 173.625 239 173.625 242 174 C243.875 176 243.875 176 245 178 C245.7425 177.62875 246.485 177.2575 247.25 176.875 C250 176 250 176 252.25 176.625 C254.37396084 178.29382638 254.64920302 179.36902268 255 182 C256.98 181.67 258.96 181.34 261 181 C261.66 182.65 262.32 184.3 263 186 C263.33 184.68 263.66 183.36 264 182 C269.53846154 182.49230769 269.53846154 182.49230769 271.875 185.0625 C272.24625 185.701875 272.6175 186.34125 273 187 C274.98 186.505 274.98 186.505 277 186 C280.53790403 189.69172595 280.59115883 193.09390595 281 198 C281.66 198 282.32 198 283 198 C282.34 195.03 281.68 192.06 281 189 C281.66 188.67 282.32 188.34 283 188 C283.99 188.66 284.98 189.32 286 190 C286.42284054 194.29887884 286.42760047 196.94225147 284.8125 200.9375 C283 203 283 203 280.625 204.125 C278 204 278 204 275.3125 201.5625 C274.549375 200.716875 273.78625 199.87125 273 199 C270.90349583 198.91720822 270.90349583 198.91720822 268.5625 199.625 C266 200 266 200 263 198 C262.4225 198.37125 261.845 198.7425 261.25 199.125 C259 200 259 200 256.75 199.125 C255.88375 198.568125 255.88375 198.568125 255 198 C255 197.34 255 196.68 255 196 C254.443125 196.66 253.88625 197.32 253.3125 198 C251 200 251 200 248.25 200.25 C247.5075 200.1675 246.765 200.085 246 200 C245.67 199.01 245.34 198.02 245 197 C243.29159719 198.63412443 242.06546953 199.86906094 241 202 C241.99 202 242.98 202 244 202 C244.33 203.65 244.66 205.3 245 207 C245.99 207 246.98 207 248 207 C248.33 207.99 248.66 208.98 249 210 C249.66 210 250.32 210 251 210 C250.38722388 212.96175123 249.74627478 214.38058783 248 217 C248.7425 216.773125 249.485 216.54625 250.25 216.3125 C253 216 253 216 255.3125 217.3125 C257 219 257 219 257 221 C257.7425 220.484375 258.485 219.96875 259.25 219.4375 C262 218 262 218 264.1875 218.1875 C266 219 266 219 268 221 C268.66 220.34 269.32 219.68 270 219 C272.34360915 219.25110098 274.67968195 219.58565749 277 220 C277.66 220 278.32 220 279 220 C279.33 219.67 279.66 219.34 280 219 C286.39534884 219.69767442 286.39534884 219.69767442 289 221 C289.66 220.01 290.32 219.02 291 218 C294.24208567 218.35049575 295.61527704 218.56221181 297.8125 221.0625 C298.204375 221.701875 298.59625 222.34125 299 223 C299.14695312 222.43410156 299.29390625 221.86820313 299.4453125 221.28515625 C300.13619834 219.02588015 300.81748922 217.04881905 302 215 C305.1875 214 305.1875 214 308 214 C310.70272533 216.87164566 311.94791837 218.30991841 312.25 222.3125 C312.1675 223.199375 312.085 224.08625 312 225 C310 224 310 224 308.875 220.9375 C308.58625 219.968125 308.2975 218.99875 308 218 C307.34 218.33 306.68 218.66 306 219 C306 221.97 306 224.94 306 228 C301.62044034 230.71532699 298.25452961 232.62467646 293 233 C292.67 232.67 292.34 232.34 292 232 C291.67 233.32 291.34 234.64 291 236 C289.1875 236.6875 289.1875 236.6875 287 237 C285.25 235.5625 285.25 235.5625 284 234 C282.515 235.98 282.515 235.98 281 238 C275.125 237.125 275.125 237.125 274 236 C272.515 238.475 272.515 238.475 271 241 C268.69 240.67 266.38 240.34 264 240 C262.515 242.475 262.515 242.475 261 245 C258.03 244.67 255.06 244.34 252 244 C252 244.66 252 245.32 252 246 C252.928125 246.3403125 252.928125 246.3403125 253.875 246.6875 C256.61410209 248.37929835 257.05024472 249.99244161 258 253 C258.99 252.67 259.98 252.34 261 252 C263.6875 252.9375 263.6875 252.9375 266 254 C266 255.32 266 256.64 266 258 C266.53625 257.7525 267.0725 257.505 267.625 257.25 C271.32664876 256.86035276 273.16046131 258.79146991 276 261 C277.35439668 263.70879335 277.06501451 266.00933268 277 269 C277.66 269 278.32 269 279 269 C279 268.34 279 267.68 279 267 C282.82946843 268.45255699 284.12050295 270.42895561 286 274 C286.61875 273.649375 287.2375 273.29875 287.875 272.9375 C288.57625 272.628125 289.2775 272.31875 290 272 C290.66 272.33 291.32 272.66 292 273 C292 273.66 292 274.32 292 275 C292.66 275 293.32 275 294 275 C294 274.34 294 273.68 294 273 C300.32206759 274.43141153 300.32206759 274.43141153 302.9375 276.625 C304.52143325 280.16555667 304.19294109 283.14117821 304 287 C303.01 287 302.02 287 301 287 C300.773125 286.05125 300.54625 285.1025 300.3125 284.125 C299.30916286 280.80676612 299.30916286 280.80676612 296.375 279.625 C295.59125 279.41875 294.8075 279.2125 294 279 C294.66 281.64 295.32 284.28 296 287 C290.48648649 287.25061425 290.48648649 287.25061425 287.9375 285.9375 C285.96141241 284.72592537 285.96141241 284.72592537 283.5 285.625 C282.675 285.74875 281.85 285.8725 281 286 C279.6434836 284.69026002 278.31442362 283.35197858 277 282 C274.92842895 281.13481444 272.85748707 280.4509377 270.70703125 279.80859375 C270.14371094 279.54175781 269.58039062 279.27492188 269 279 C268.67 278.01 268.34 277.02 268 276 C266.02 276.66 264.04 277.32 262 278 C261.67 276.68 261.34 275.36 261 274 C260.01 274.33 259.02 274.66 258 275 C257.67 275.99 257.34 276.98 257 278 C257.86625 278.103125 258.7325 278.20625 259.625 278.3125 C263.30101702 279.06131828 265.88336026 279.89808018 269 282 C269.875 285.1875 269.875 285.1875 270 288 C265.12335991 288.34833144 262.22949995 287.41685712 258 285 C258 287.31 258 289.62 258 292 C259.670625 291.9071875 259.670625 291.9071875 261.375 291.8125 C263.169375 291.9053125 263.169375 291.9053125 265 292 C267.29013653 295.4352048 267.17842973 296.985331 267 301 C268.65 300.34 270.3 299.68 272 299 C274.5654594 301.5654594 274.54046087 303.47686668 275 307 C276.32 307.33 277.64 307.66 279 308 C279.2475 309.11375 279.495 310.2275 279.75 311.375 C280.56905939 315.03210362 280.56905939 315.03210362 282.9375 316.125 C283.618125 316.41375 284.29875 316.7025 285 317 C287.36453668 320.240291 288.43453326 323.04173281 289 327 C289.66 325.68 290.32 324.36 291 323 C292.89453125 323.26171875 292.89453125 323.26171875 295 324 C296.01171875 325.70703125 296.01171875 325.70703125 296.6875 327.8125 C296.91824219 328.49957031 297.14898438 329.18664062 297.38671875 329.89453125 C298.70778461 334.42991023 299.09178474 338.22719375 299 343 C298.01 343.495 298.01 343.495 297 344 C293.60582235 340.87378374 291.3937282 338.43458973 290 334 C289.62875 334.495 289.2575 334.99 288.875 335.5 C286.25305607 337.59755514 284.26157528 337.21743835 281 337 C280.67 336.34 280.34 335.68 280 335 C277.36 335.33 274.72 335.66 272 336 C271.34 334.35 270.68 332.7 270 331 C268.948125 331.391875 267.89625 331.78375 266.8125 332.1875 C263 333 263 333 260.25 331.625 C259.5075 331.08875 258.765 330.5525 258 330 C257.01 330 256.02 330 255 330 C254.01 330 253.02 330 252 330 C252 330.66 252 331.32 252 332 C253.65 332.33 255.3 332.66 257 333 C257.33 334.65 257.66 336.3 258 338 C258.5775 337.649375 259.155 337.29875 259.75 336.9375 C262 336 262 336 264.1875 336.25 C266 337 266 337 267 339 C265.35 338.67 263.7 338.34 262 338 C262.33 339.65 262.66 341.3 263 343 C264.98 343.33 266.96 343.66 269 344 C269.33 346.64 269.66 349.28 270 352 C270.66 352 271.32 352 272 352 C272.33 351.01 272.66 350.02 273 349 C273.99 349.33 274.98 349.66 276 350 C276.33 351.65 276.66 353.3 277 355 C279.38564077 354.42415568 281.66682784 353.77772405 284 353 C289.63380282 356.26760563 289.63380282 356.26760563 291 359 C291.13415472 361.6723621 291.04318541 364.32250488 291 367 C287.34829534 368.60385043 284.15287512 370 280.125 370 C278 369 278 369 276.6875 366.4375 C276.460625 365.633125 276.23375 364.82875 276 364 C275.01 364.66 274.02 365.32 273 366 C269.70555942 365.79409746 267.68889633 365.57408028 265.125 363.4375 C264.75375 362.963125 264.3825 362.48875 264 362 C263.34 362.66 262.68 363.32 262 364 C259.37452292 363.73745229 258.04958712 363.037566 255.9375 361.4375 C254.00053972 359.70207654 254.00053972 359.70207654 251 360 C251.93590504 361.1055189 252.87379858 362.20935453 253.8125 363.3125 C254.59560547 364.23482422 254.59560547 364.23482422 255.39453125 365.17578125 C256.96301245 367.0143273 256.96301245 367.0143273 258.69921875 368.60546875 C260 370 260 370 260 372 C260.66 371.67 261.32 371.34 262 371 C266.05230132 373.84756309 268.2190937 376.34985578 270 381 C269.67 381.99 269.34 382.98 269 384 C268.01 384 267.02 384 266 384 C264.31201173 385.43750191 264.31201173 385.43750191 263 387 C256.07867866 385.48519124 251.06609603 384.06609603 246 379 C246.66 380.0725 247.32 381.145 248 382.25 C249.88295807 385.30980686 250 386.1335864 250 390 C251.093125 389.9175 252.18625 389.835 253.3125 389.75 C257 390 257 390 258.9375 391.875 C260 394 260 394 260 396 C261.32 396.33 262.64 396.66 264 397 C264 397.99 264 398.98 264 400 C263.34 400 262.68 400 262 400 C263.93254772 402.0245738 265.63158688 403.42105792 268 405 C268 405.99 268 406.98 268 408 C266.68 408.33 265.36 408.66 264 409 C264.89968783 411.2543595 264.89968783 411.2543595 267.5625 412.5 C268.366875 412.995 269.17125 413.49 270 414 C270 414.66 270 415.32 270 416 C268.68 416.33 267.36 416.66 266 417 C266 418.32 266 419.64 266 421 C267.65 421 269.3 421 271 421 C270.625 423.9375 270.625 423.9375 270 427 C266.98675805 428.50662097 264.31713623 428.17770373 261 428 C260.34 427.34 259.68 426.68 259 426 C259.66 425.67 260.32 425.34 261 425 C260.525625 424.566875 260.05125 424.13375 259.5625 423.6875 C258 422 258 422 257 419 C256.67 419.66 256.34 420.32 256 421 C255.34 421 254.68 421 254 421 C253.34 418.03 252.68 415.06 252 412 C250.35 411.67 248.7 411.34 247 411 C246.67 413.31 246.34 415.62 246 418 C245.34 418 244.68 418 244 418 C245.32 419.32 246.64 420.64 248 422 C247.34 424.31 246.68 426.62 246 429 C246.99 429 247.98 429 249 429 C249.73080266 430.97746603 250.39421747 432.98072489 251 435 C250.67 435.66 250.34 436.32 250 437 C250.66 437 251.32 437 252 437 C254.90481571 441.76389777 255.2778833 444.56899596 254 450 C253.67 450.33 253.34 450.66 253 451 C253.99 451.66 254.98 452.32 256 453 C255.360625 453.268125 254.72125 453.53625 254.0625 453.8125 C251.66868314 454.88667752 251.66868314 454.88667752 251 458 C246.29447853 456.55214724 246.29447853 456.55214724 245 454.125 C245 451.25529451 246.12913796 450.09536549 248 448 C246.35 447.67 244.7 447.34 243 447 C242.67 445.35 242.34 443.7 242 442 C240.329375 441.62875 240.329375 441.62875 238.625 441.25 C235 440 235 440 233.5625 438 C233 436 233 436 233 434 C232.01 434 231.02 434 230 434 C229.34 434.66 228.68 435.32 228 436 C227.01 435.01 226.02 434.02 225 433 C226.12451727 430.0280615 227.22293791 427.66559313 229 425 C228.2575 425.61875 227.515 426.2375 226.75 426.875 C224 429 224 429 220 431 C220.33 434.3 220.66 437.6 221 441 C219.68 441.66 218.36 442.32 217 443 C217 444.65 217 446.3 217 448 C215.68 448.66 214.36 449.32 213 450 C213.680625 450.556875 214.36125 451.11375 215.0625 451.6875 C217 454 217 454 216.8125 456.625 C216 459 216 459 215 461 C216.32 461 217.64 461 219 461 C220.2077558 464.62326739 219.54311128 465.64146369 218 469 C219.32 469.66 220.64 470.32 222 471 C222 472.65 222 474.3 222 476 C220.02 476.33 218.04 476.66 216 477 C216 477.66 216 478.32 216 479 C217.79526111 480.28949167 217.79526111 480.28949167 220 481.5 C222.25 482.78125 222.25 482.78125 224 484 C224 484.66 224 485.32 224 486 C217.73491379 488.33405172 217.73491379 488.33405172 214.25 486.75 C213.5075 486.1725 212.765 485.595 212 485 C211.01 484.34 210.02 483.68 209 483 C207.4875157 478.81158193 208.39818775 476.05164274 210 472 C209.05125 471.62875 208.1025 471.2575 207.125 470.875 C204 469 204 469 202.625 465.8125 C202.41875 464.884375 202.2125 463.95625 202 463 C201.01 463 200.02 463 199 463 C197.68 465.31 196.36 467.62 195 470 C195.680625 470.886875 196.36125 471.77375 197.0625 472.6875 C199 476 199 476 198.81640625 478.40234375 C197.90169849 481.31277753 196.59918439 483.3649083 194.875 485.875 C192.81275242 489.15495568 191.52258557 491.22515924 192.125 495.125 C192.41375 496.07375 192.7025 497.0225 193 498 C192.34 498 191.68 498 191 498 C191 498.66 191 499.32 191 500 C191.99 499.67 192.98 499.34 194 499 C193.67 499.99 193.34 500.98 193 502 C191.125 502.875 191.125 502.875 189 503 C186.06352084 500.71864086 184.97849691 498.05200998 183.6875 494.625 C183.32011719 493.68914062 182.95273437 492.75328125 182.57421875 491.7890625 C181.88764613 488.45428121 182.43084954 486.97036508 184 484 C184.33 483.67 184.66 483.34 185 483 C183.68 482.34 182.36 481.68 181 481 C181 479.02 181 477.04 181 475 C180.38125 474.87625 179.7625 474.7525 179.125 474.625 C177 474 177 474 175 472 C174.375 469.875 174.375 469.875 174 468 C173.01 468.33 172.02 468.66 171 469 C171 469.66 171 470.32 171 471 C171.99 471.33 172.98 471.66 174 472 C174.33 473.98 174.66 475.96 175 478 C174.01 478.33 173.02 478.66 172 479 C172.474375 479.721875 172.94875 480.44375 173.4375 481.1875 C174.97468519 483.95443334 175.83400929 485.84617655 176 489 C174.5625 490.8125 174.5625 490.8125 173 492 C173.639375 492.391875 174.27875 492.78375 174.9375 493.1875 C177.43778819 495.38472296 177.64950425 496.75791433 178 500 C177.34 500 176.68 500 176 500 C176 501.32 176 502.64 176 504 C176.99 504 177.98 504 179 504 C179.66 507.96 180.32 511.92 181 516 C178.1875 517.5625 178.1875 517.5625 175 519 C174.01 518.67 173.02 518.34 172 518 C172 518.66 172 519.32 172 520 C172.763125 520.12375 173.52625 520.2475 174.3125 520.375 C177 521 177 521 180 523 C179.67 524.65 179.34 526.3 179 528 C178.01 527.67 177.02 527.34 176 527 C175.27683594 526.77441406 174.55367187 526.54882812 173.80859375 526.31640625 C172.63490234 525.94322266 172.63490234 525.94322266 171.4375 525.5625 C170.65246094 525.31628906 169.86742187 525.07007813 169.05859375 524.81640625 C167 524 167 524 165 522 C164.43127962 514.9478673 164.43127962 514.9478673 166.5 511.5 C166.995 511.005 167.49 510.51 168 510 C167.113125 509.79375 166.22625 509.5875 165.3125 509.375 C161.13887205 507.64255066 159.46098778 505.76386366 157 502 C156.6875 498.625 156.6875 498.625 157 496 C155.68 496 154.36 496 153 496 C152.34 494.35 151.68 492.7 151 491 C150.01 491 149.02 491 148 491 C148 492.65 148 494.3 148 496 C147.34 496.33 146.68 496.66 146 497 C146.350625 497.7425 146.70125 498.485 147.0625 499.25 C148.05526066 502.16209794 148.1541971 503.21069033 147 506 C146.34 506.66 145.68 507.32 145 508 C145.66 508.66 146.32 509.32 147 510 C146.94140625 512.05859375 146.94140625 512.05859375 146.5625 514.4375 C146.06662962 517.60585075 145.95707046 518.87121138 147 522 C145.5625 524.6875 145.5625 524.6875 144 527 C145.32 527.66 146.64 528.32 148 529 C148 529.99 148 530.98 148 532 C147.34 532.33 146.68 532.66 146 533 C146.99 533.66 147.98 534.32 149 535 C149 536.32 149 537.64 149 539 C148.0409375 539.1546875 148.0409375 539.1546875 147.0625 539.3125 C146.381875 539.539375 145.70125 539.76625 145 540 C144.67 540.99 144.34 541.98 144 543 C143.01 542.67 142.02 542.34 141 542 C141 541.34 141 540.68 141 540 C140.39929688 539.74605469 139.79859375 539.49210938 139.1796875 539.23046875 C135.48698758 537.14588009 133.50963718 533.91101352 132 530 C132.17060611 527.24445287 132.87323367 525.5754659 134 523 C133.360625 522.7525 132.72125 522.505 132.0625 522.25 C130 521 130 521 129.3125 519.125 C129.209375 518.42375 129.10625 517.7225 129 517 C128.6814823 514.89179203 128.6814823 514.89179203 128 513 C127.01 512.34 126.02 511.68 125 511 C124.93941406 511.74765625 124.87882812 512.4953125 124.81640625 513.265625 C124.73261719 514.25046875 124.64882813 515.2353125 124.5625 516.25 C124.48128906 517.22453125 124.40007812 518.1990625 124.31640625 519.203125 C124.04925416 521.56461753 123.64628032 523.71901065 123 526 C121.02 526.33 119.04 526.66 117 527 C117.99 527.6496875 117.99 527.6496875 119 528.3125 C119.66 528.869375 120.32 529.42625 121 530 C121 530.99 121 531.98 121 533 C120.01 533.33 119.02 533.66 118 534 C118.66 535.65 119.32 537.3 120 539 C116.52176885 540.15941038 114.54104422 539.70820884 111 539 C111.60990891 542.55780196 112.5783681 545.6828589 114 549 C111.69 549 109.38 549 107 549 C103.92824856 599.9033096 102.42625883 656.84365184 134 700 C134.74121094 701.02996094 135.48242188 702.05992187 136.24609375 703.12109375 C143.23327357 712.62704896 150.70501961 721.71181264 158.6640625 730.41796875 C159.90149843 731.78577001 161.13404304 733.15886857 162.32348633 734.56860352 C168.01217505 741.26598227 174.25969245 747.41035414 180.47875977 753.60913086 C182.43295624 755.5579687 184.38175147 757.51209272 186.33007812 759.46679688 C194.5941896 767.73665979 194.5941896 767.73665979 203.29321289 775.54272461 C206.28500045 778.09714886 209.13112417 780.80936313 212 783.5 C215.74315273 786.99708891 219.48982066 790.47247429 223.375 793.8125 C226.75846537 796.72803931 229.87535442 799.85785021 233.0078125 803.0390625 C234.90327074 804.90478806 236.85446735 806.64659255 238.875 808.375 C243.84721135 812.65090562 248.39964271 817.33210076 253 822 C253.80953125 822.80695312 254.6190625 823.61390625 255.453125 824.4453125 C289.89499381 858.99283121 306.08832136 904.54238728 321.9375 949.75 C322.42307373 951.13143188 322.42307373 951.13143188 322.91845703 952.54077148 C325 958.61440382 325 958.61440382 325 962 C274.0395127 962.12972801 223.07902028 962.25727114 172.11852093 962.38218227 C165.99690129 962.39718893 159.87528169 962.41221231 153.75366211 962.42724609 C151.92686299 962.43173202 151.92686299 962.43173202 150.06315883 962.43630856 C133.12942656 962.47792574 116.19569675 962.52043333 99.2619686 962.56369197 C69.98324493 962.63848595 40.70451725 962.71143916 11.42578125 962.78125 C9.70353308 962.78536243 9.70353308 962.78536243 7.94649202 962.78955793 C-79.03576866 962.99689547 -166.01752705 963.06614914 -253 963 C-252.33230572 957.91011224 -251.27716892 953.34647921 -249.4375 948.5625 C-249.17501465 947.87438232 -248.9125293 947.18626465 -248.64208984 946.47729492 C-231.80041623 903.45429643 -200.45661655 879.7754954 -160.5625 858.8125 C-141.14398551 848.58657182 -123.54779405 835.54779405 -108 820 C-107.96343914 816.89537338 -108.05351697 813.90474208 -108.25 810.8125 C-108.32951904 809.42236694 -108.32951904 809.42236694 -108.41064453 808.00415039 C-108.59100991 805.00149384 -108.79254683 802.00090089 -109 799 C-109.06735352 797.99356445 -109.13470703 796.98712891 -109.20410156 795.95019531 C-109.41195446 792.94454571 -109.6393464 789.94108903 -109.875 786.9375 C-109.97409668 785.56718628 -109.97409668 785.56718628 -110.07519531 784.16918945 C-111.07070849 772.43801984 -114.48524512 762.20789001 -119.25 751.5 C-122.78248725 743.40173664 -126.03750921 735.32561302 -128.8125 726.9375 C-132.60269559 715.73470833 -137.68739344 709.16679889 -146.17578125 700.8984375 C-155.70320266 691.3547299 -161.75991853 681.62924065 -162 668 C-161.82017695 664.3115365 -161.54924944 660.63558705 -161.2734375 656.953125 C-159.94691351 642.80872648 -159.94691351 642.80872648 -165 630 C-168.87265357 626.24655548 -172.48168544 626.5347684 -177.66293335 626.58105469 C-187.86789418 626.86793947 -197.94642625 628.79759473 -208.00350952 630.42098999 C-241.52860713 635.78103918 -241.52860713 635.78103918 -257.6875 635.6875 C-258.80398926 635.68169922 -259.92047852 635.67589844 -261.07080078 635.66992188 C-273.10058695 635.30191218 -284.33807081 632.57742909 -293.6875 624.75 C-301.77777275 615.12913511 -305.52878887 606.70436097 -305.3125 594.125 C-305.31572266 593.19558594 -305.31894531 592.26617188 -305.32226562 591.30859375 C-305.2794558 585.72774907 -304.62819242 580.61027253 -303.42944336 575.16552734 C-302.33202011 569.63161931 -303.20404737 564.65313239 -305.625 559.625 C-308.92625657 555.97624274 -312.63289535 554.00436029 -317.08984375 552.11328125 C-322.57711777 549.69152344 -324.54117582 547.50776616 -327 542 C-329.22514136 536.25171815 -328.49414788 529.56511866 -326.1875 523.96484375 C-323.92984676 520.22931881 -320.65023135 517.35498797 -317 515 C-316.01 515 -315.02 515 -314 515 C-316.42177656 512.50902983 -318.68690954 510.21381787 -321.5625 508.25 C-325.82477574 504.31559163 -327.66517222 499.79767208 -328.3515625 494.0625 C-328.43772723 490.99190246 -328.30312736 488.05585148 -328 485 C-327.92523438 484.20335937 -327.85046875 483.40671875 -327.7734375 482.5859375 C-326.43754434 476.1781788 -321.98649174 473.39278365 -316.92236328 469.81567383 C-311.79807504 466.11415799 -308.38562197 461.9368218 -306 456 C-306 455.01 -306 454.02 -306 453 C-308.19487158 451.38694841 -308.19487158 451.38694841 -311 449.875 C-319.64908799 444.55419684 -325.31675254 438.49808785 -328.375 428.6953125 C-329.93609995 421.96306895 -329.53975525 416.4962835 -326.453125 410.2578125 C-322.12208008 403.52839324 -315.70348332 398.64275313 -309.390625 393.875 C-302.62000399 388.56470902 -296.39575043 382.71679798 -290.875 376.12109375 C-288.99051782 373.98927329 -286.99453767 372.00993839 -284.95092773 370.03149414 C-273.26219523 358.71073039 -273.26219523 358.71073039 -268.625 343.625 C-268.78834213 336.60128826 -272.7172992 332.31645616 -277 327 C-278 324 -278 324 -277 321 C-277.38932856 318.85744207 -277.38932856 318.85744207 -278 317 C-277.01 316.67 -276.02 316.34 -275 316 C-274.938125 314.989375 -274.87625 313.97875 -274.8125 312.9375 C-273.5581724 303.30968818 -269.96537775 294.3930998 -265.125 286.0625 C-259.41726185 276.13165646 -256.97238578 264.97781896 -254 254 C-250.93530445 242.84893908 -245.5469645 233.08596631 -240 223 C-240.95729916 221.87411986 -241.91587895 220.7493285 -242.875 219.625 C-243.40867187 218.99851563 -243.94234375 218.37203125 -244.4921875 217.7265625 C-245.61432007 216.44163349 -246.79371975 215.20628025 -248 214 C-246.68 213.67 -245.36 213.34 -244 213 C-245.175625 212.8453125 -245.175625 212.8453125 -246.375 212.6875 C-249 212 -249 212 -251 209 C-253.25430611 207.1820112 -255.58804843 205.60796771 -258 204 C-258 203.34 -258 202.68 -258 202 C-259.134375 201.690625 -260.26875 201.38125 -261.4375 201.0625 C-265 200 -265 200 -266 199 C-266.04063832 197.33382885 -266.042721 195.66611905 -266 194 C-269.29865513 194.36651724 -270.09849137 195.10606763 -272.4375 197.625 C-273.7059375 198.800625 -273.7059375 198.800625 -275 200 C-279.19047619 199.80952381 -279.19047619 199.80952381 -281 198 C-281.66 199.98 -282.32 201.96 -283 204 C-288.875 203.125 -288.875 203.125 -290 202 C-289.938125 202.928125 -289.87625 203.85625 -289.8125 204.8125 C-290 208 -290 208 -291.0625 209.875 C-294.00227124 211.58196395 -296.67870803 211.18799766 -300 211 C-299.34 211.66 -298.68 212.32 -298 213 C-298.375 215.625 -298.375 215.625 -299 218 C-303.00200378 219.60080151 -306.04556236 218.29279692 -310 217 C-309.01 217.928125 -309.01 217.928125 -308 218.875 C-306 221 -306 221 -306 223 C-307.75 223.75 -307.75 223.75 -310 224 C-312.25 222.0625 -312.25 222.0625 -314 220 C-312.66511872 223.59391114 -311.03977277 226.75490696 -309 230 C-309.99 230.99 -309.99 230.99 -311 232 C-315.875 228.25 -315.875 228.25 -317 226 C-317.14754174 224.21247508 -317.2211522 222.4183716 -317.25 220.625 C-317.27578125 219.66851562 -317.3015625 218.71203125 -317.328125 217.7265625 C-316.94637831 214.5544293 -316.30961118 213.19517098 -314 211 C-312.68 211 -311.36 211 -310 211 C-310.04125 209.906875 -310.0825 208.81375 -310.125 207.6875 C-310 204 -310 204 -308 201 C-306.0546875 200.70703125 -306.0546875 200.70703125 -303.875 200.8125 C-302.59625 200.874375 -301.3175 200.93625 -300 201 C-300.66 198.69 -301.32 196.38 -302 194 C-289.69931663 182.70387244 -289.69931663 182.70387244 -282 183 C-282 181.02 -282 179.04 -282 177 C-278.62902617 175.50178941 -276.79557881 175 -273 175 C-273.04125 174.05125 -273.0825 173.1025 -273.125 172.125 C-273 169 -273 169 -271 167 C-268.60938484 166.40234621 -266.46474039 166 -264 166 C-263.34 165.67 -262.68 165.34 -262 165 C-262 164.34 -262 163.68 -262 163 C-263.65 163.33 -265.3 163.66 -267 164 C-266.505 161.03 -266.505 161.03 -266 158 C-266.66 158 -267.32 158 -268 158 C-268.33 159.32 -268.66 160.64 -269 162 C-270.32 161.34 -271.64 160.68 -273 160 C-273 158.68 -273 157.36 -273 156 C-273.5775 156.33 -274.155 156.66 -274.75 157 C-277 158 -277 158 -281 158 C-282.625 156.5625 -282.625 156.5625 -284 155 C-284.66 154.67 -285.32 154.34 -286 154 C-286.04125 154.5775 -286.0825 155.155 -286.125 155.75 C-287.47250911 159.21502341 -289.82283217 160.22811794 -293 162 C-295.6875 162.875 -295.6875 162.875 -298 163 C-299.485 162.01 -299.485 162.01 -301 161 C-300.95875 161.94875 -300.9175 162.8975 -300.875 163.875 C-301 167 -301 167 -303 169 C-307.91680309 168.91939667 -310.07153231 168.71569384 -314 165.6875 C-316 163 -316 163 -316 159 C-312.33118845 159.70554068 -309.29549466 161.27735506 -306 163 C-306.10699219 162.38511719 -306.21398437 161.77023438 -306.32421875 161.13671875 C-306.44410156 160.32847656 -306.56398438 159.52023438 -306.6875 158.6875 C-306.81511719 157.88699219 -306.94273437 157.08648437 -307.07421875 156.26171875 C-307 154 -307 154 -305.51953125 152.20703125 C-305.01808594 151.80871094 -304.51664063 151.41039062 -304 151 C-301.69 151.66 -299.38 152.32 -297 153 C-297.515625 152.5875 -298.03125 152.175 -298.5625 151.75 C-300 150 -300 150 -300.125 148 C-298.61220021 145.31057815 -296.64607944 144.7703295 -293.8359375 143.7265625 C-291.79320411 142.98656596 -291.79320411 142.98656596 -289.375 141.3125 C-286.68111921 139.82377641 -285.0297636 139.74030598 -282 140 C-281.34 138.68 -280.68 137.36 -280 136 C-277.69 136 -275.38 136 -273 136 C-272.67 135.01 -272.34 134.02 -272 133 C-272.721875 133.103125 -273.44375 133.20625 -274.1875 133.3125 C-279.11235864 132.76529348 -281.31251537 128.83612995 -284.3125 125.1875 C-285.1478125 124.1046875 -285.1478125 124.1046875 -286 123 C-284.02 122.505 -284.02 122.505 -282 122 C-281.67 122.66 -281.34 123.32 -281 124 C-280.01 124.33 -279.02 124.66 -278 125 C-280.475 121.535 -280.475 121.535 -283 118 C-282.34 118 -281.68 118 -281 118 C-280.67 117.34 -280.34 116.68 -280 116 C-277.03 116.99 -277.03 116.99 -274 118 C-274.495 116.88625 -274.99 115.7725 -275.5 114.625 C-277 111 -277 111 -277 109 C-277.66 109 -278.32 109 -279 109 C-279.33 110.98 -279.66 112.96 -280 115 C-286.56498674 111.96065429 -286.56498674 111.96065429 -288.5 107.6875 C-289.02800877 103.7934353 -288.89870459 100.81949453 -288 97 C-287.34 96.34 -286.68 95.68 -286 95 C-282.875 95.375 -282.875 95.375 -280 96 C-279.67 96.99 -279.34 97.98 -279 99 C-278.34 98.34 -277.68 97.68 -277 97 C-273.80848491 96.5800638 -272.41508925 96.73075292 -269.6875 98.5 C-269.130625 98.995 -268.57375 99.49 -268 100 C-267.34 99.34 -266.68 98.68 -266 98 C-262.875 97.875 -262.875 97.875 -260 98 C-259.01 99.98 -258.02 101.96 -257 104 C-252.545 103.505 -252.545 103.505 -248 103 C-246.68 105.31 -245.36 107.62 -244 110 C-243.01 109.01 -242.02 108.02 -241 107 C-238.37812506 108.04874998 -237.20628639 108.64931313 -235.75 111.125 C-235.37875 112.053125 -235.37875 112.053125 -235 113 C-234.67 111.02 -234.34 109.04 -234 107 C-234.804375 106.87625 -235.60875 106.7525 -236.4375 106.625 C-237.283125 106.41875 -238.12875 106.2125 -239 106 C-240.32229189 103.35541621 -240.09677194 101.32238699 -240.0625 98.375 C-240.05347656 97.37210937 -240.04445313 96.36921875 -240.03515625 95.3359375 C-240.02355469 94.56507812 -240.01195312 93.79421875 -240 93 C-241.485 92.505 -241.485 92.505 -243 92 C-243 90.35 -243 88.7 -243 87 C-244.134375 86.5875 -245.26875 86.175 -246.4375 85.75 C-250 84 -250 84 -250.9375 81.8125 C-250.958125 81.214375 -250.97875 80.61625 -251 80 C-251.86625 80.495 -251.86625 80.495 -252.75 81 C-255 82 -255 82 -259 82 C-260.484375 80.25 -260.484375 80.25 -261.75 78 C-262.17796875 77.2575 -262.6059375 76.515 -263.046875 75.75 C-263.36140625 75.1725 -263.6759375 74.595 -264 74 C-265.485 74.495 -265.485 74.495 -267 75 C-269.6875 74.5625 -269.6875 74.5625 -272 74 C-272 74.66 -272 75.32 -272 76 C-272.66 76 -273.32 76 -274 76 C-274.33 74.68 -274.66 73.36 -275 72 C-273.73392393 71.46770674 -272.46189588 70.94955456 -271.1875 70.4375 C-270.47980469 70.14746094 -269.77210938 69.85742188 -269.04296875 69.55859375 C-267 69 -267 69 -264 70 C-263.01 68.68 -262.02 67.36 -261 66 C-259.35 66.33 -257.7 66.66 -256 67 C-255.67 68.65 -255.34 70.3 -255 72 C-254.01 70.02 -254.01 70.02 -253 68 C-250.6568787 68.25561323 -248.32156597 68.59270772 -246 69 C-245.67 69.66 -245.34 70.32 -245 71 C-244.34 69.35 -243.68 67.7 -243 66 C-240.11424181 66.39803561 -239.17810487 66.79009069 -237.25 69.0625 C-236.8375 69.701875 -236.425 70.34125 -236 71 C-235.01 69.02 -235.01 69.02 -234 67 C-229.26945934 67.69051465 -225.81054083 68.38795896 -221.9375 71.3125 C-219.82730439 74.23954553 -219.49767262 75.48370837 -220 79 C-219.401875 78.505 -218.80375 78.01 -218.1875 77.5 C-216 76 -216 76 -213 76 C-213.845625 75.319375 -214.69125 74.63875 -215.5625 73.9375 C-218 71 -218 71 -217.8125 67.1875 C-217.4103125 65.6096875 -217.4103125 65.6096875 -217 64 C-218.65 64 -220.3 64 -222 64 C-223.69643316 59.709022 -223.88693923 57.43469615 -223 53 C-223.62627128 50.98698517 -224.29835358 48.98799818 -225 47 C-226.06382568 42.5390839 -226.3392478 39.82599465 -224.5625 35.5 C-224.046875 34.675 -223.53125 33.85 -223 33 C-223.928125 33.2784375 -223.928125 33.2784375 -224.875 33.5625 C-227 34 -227 34 -229 33 C-229.10963689 26.23383767 -227.43479633 22.48462503 -222.984375 17.43359375 C-220.50215493 15.64033634 -218.99533623 15.7159595 -216 16 C-216.8125 17.9375 -216.8125 17.9375 -218 20 C-219.485 20.495 -219.485 20.495 -221 21 C-221 21.66 -221 22.32 -221 23 C-217.68273845 22.42805835 -216.27364177 21.42999536 -214 19 C-214.03480469 19.62648438 -214.06960938 20.25296875 -214.10546875 20.8984375 C-214.14607422 22.12433594 -214.14607422 22.12433594 -214.1875 23.375 C-214.22230469 24.18710937 -214.25710938 24.99921875 -214.29296875 25.8359375 C-214.19628906 26.55007812 -214.09960938 27.26421875 -214 28 C-213.01 28.66 -212.02 29.32 -211 30 C-209.01510246 35.62387637 -206.89998818 42.16663382 -209 48 C-208.401875 48.12375 -207.80375 48.2475 -207.1875 48.375 C-205 49 -205 49 -202 51 C-202 51.66 -202 52.32 -202 53 C-201.34 53 -200.68 53 -200 53 C-199.67 52.34 -199.34 51.68 -199 51 C-196.625 51.1875 -196.625 51.1875 -194 52 C-192.6875 54.5625 -192.6875 54.5625 -192 57 C-190.02 56.01 -190.02 56.01 -188 55 C-187.278125 55.804375 -186.55625 56.60875 -185.8125 57.4375 C-182.97484311 60.02292072 -181.72833853 60.68042813 -178 61 C-178.845625 60.113125 -179.69125 59.22625 -180.5625 58.3125 C-183.02603251 55.3991652 -183.02603251 55.3991652 -182.8125 52.125 C-182.544375 51.42375 -182.27625 50.7225 -182 50 C-181.01 50.33 -180.02 50.66 -179 51 C-179.11859375 50.40832031 -179.2371875 49.81664062 -179.359375 49.20703125 C-180.42538593 42.67238422 -180.42538593 42.67238422 -178.0625 38.9375 C-177.381875 38.298125 -176.70125 37.65875 -176 37 C-177.98 35.02 -177.98 35.02 -180 33 C-179.67 32.01 -179.34 31.02 -179 30 C-178.34 30 -177.68 30 -177 30 C-177.11859375 29.34773438 -177.2371875 28.69546875 -177.359375 28.0234375 C-178.01476344 23.57990389 -178.32451046 20.77600328 -176.5625 16.5625 C-173.3765465 13.3765465 -170.35538347 12.01953535 -166 11 C-165.01 11 -164.02 11 -163 11 C-163 10.01 -163 9.02 -163 8 C-164.98 7.505 -164.98 7.505 -167 7 C-166.67 6.01 -166.34 5.02 -166 4 C-164.35 4.99 -162.7 5.98 -161 7 C-161 6.34 -161 5.68 -161 5 C-162.98 4.01 -164.96 3.02 -167 2 C-166.67 1.01 -166.34 0.02 -166 -1 C-160.77572397 -0.91435613 -160.77572397 -0.91435613 -158 0 C-155.60100117 3.35859837 -154.7479577 5.10627678 -155.2890625 9.171875 C-155.96297138 11.39658623 -156.66276883 13.0966743 -158 15 C-161.1875 16.5 -161.1875 16.5 -164 17 C-163.79375 18.051875 -163.5875 19.10375 -163.375 20.1875 C-163.00036896 23.99624887 -163.28369933 25.66835752 -165 29 C-163.68 29.33 -162.36 29.66 -161 30 C-160.87374462 37.57532281 -160.87374462 37.57532281 -161.6875 40.3125 C-161.790625 40.869375 -161.89375 41.42625 -162 42 C-161.54625 42.433125 -161.0925 42.86625 -160.625 43.3125 C-158.16492026 45.86719819 -158.32350286 48.57086971 -158 52 C-156.97634991 47.33670514 -157.3049688 43.69146061 -158 39 C-157.5625 36.5625 -157.5625 36.5625 -157 35 C-156.34 35 -155.68 35 -155 35 C-154.34 33.68 -153.68 32.36 -153 31 C-151.0625 31.375 -151.0625 31.375 -149 32 C-148.67 32.66 -148.34 33.32 -148 34 C-147.67 33.01 -147.34 32.02 -147 31 C-144 30 -144 30 -141.9375 30.5625 C-139.20992266 32.58618642 -138.8378558 34.78821942 -138 38 C-136.57275594 36.79225747 -136.57275594 36.79225747 -136.75 33.25 C-136.77104152 29.308222 -137.96507383 27.36205194 -140 24 C-139.78233633 20.29971764 -139.64508959 18.64508959 -137 16 C-136.87261679 14.02556022 -136.74942053 12.04879995 -136.734375 10.0703125 C-135.4994306 6.58882032 -133.19716164 5.6459192 -130 4 C-126.2734375 3.5390625 -126.2734375 3.5390625 -122.375 3.625 C-120.43753906 3.64433594 -120.43753906 3.64433594 -118.4609375 3.6640625 C-115.3540839 3.96563068 -113.59475701 4.35358058 -111 6 C-111 6.99 -111 7.98 -111 9 C-111.99 8.67 -112.98 8.34 -114 8 C-114 7.34 -114 6.68 -114 6 C-115.32 6.33 -116.64 6.66 -118 7 C-117.01 8.98 -117.01 8.98 -116 11 C-116.78375 11.0825 -117.5675 11.165 -118.375 11.25 C-121.10658251 11.70366317 -121.10658251 11.70366317 -122.0625 13.8125 C-122.371875 14.534375 -122.68125 15.25625 -123 16 C-124.29470975 17.37086915 -125.62150897 18.71340837 -127 20 C-125.35 20.66 -123.7 21.32 -122 22 C-122.33 24.31 -122.66 26.62 -123 29 C-121.35 29 -119.7 29 -118 29 C-117.04975021 32.69541586 -117.04975021 35.30458414 -118 39 C-116.68 38.67 -115.36 38.34 -114 38 C-111.29417212 41.83325617 -110.67386382 44.32538149 -111 49 C-109.68 49.66 -108.36 50.32 -107 51 C-107 50.67 -107 50.34 -107 50 C-106.4669776 46.13558764 -104.69263001 44.69263001 -102 42 C-100.53335352 39.58500543 -100.53335352 39.58500543 -100 37 C-100.76603959 34.7142289 -100.76603959 34.7142289 -102 33 C-101.34 32.01 -100.68 31.02 -100 30 C-99.34 30 -98.68 30 -98 30 C-98.22816406 29.26394531 -98.45632813 28.52789062 -98.69140625 27.76953125 C-98.97886719 26.79371094 -99.26632812 25.81789063 -99.5625 24.8125 C-99.99755859 23.36810547 -99.99755859 23.36810547 -100.44140625 21.89453125 C-101.0323866 18.83217854 -100.92491957 16.95974262 -100 14 C-98.1875 12.1875 -98.1875 12.1875 -96 11 C-94.68 11 -93.36 11 -92 11 C-92 10.34 -92 9.68 -92 9 C-93.32 9 -94.64 9 -96 9 C-95 6 -95 6 -92.75 4.75 C-89.71763271 3.92299074 -87.98879276 4.14605921 -85 5 C-84.67 4.34 -84.34 3.68 -84 3 C-85.65 2.67 -87.3 2.34 -89 2 C-89 1.67 -89 1.34 -89 1 C-86.6875 0.75 -86.6875 0.75 -84 1 C-82.1875 2.75 -82.1875 2.75 -81 5 C-81 6.32 -81 7.64 -81 9 C-81.99 9 -82.98 9 -84 9 C-83.67 9.5775 -83.34 10.155 -83 10.75 C-82 13 -82 13 -82 17 C-83.32 17 -84.64 17 -86 17 C-85.01 17.33 -84.02 17.66 -83 18 C-82.875 22.75 -82.875 22.75 -84 25 C-83.030625 25.2475 -82.06125 25.495 -81.0625 25.75 C-78 27 -78 27 -77.125 28.875 C-77.00508424 30.9135679 -77 32.95790821 -77 35 C-76.67 34.01 -76.34 33.02 -76 32 C-74.35 32.66 -72.7 33.32 -71 34 C-70.690625 32.7934375 -70.690625 32.7934375 -70.375 31.5625 C-69.92125 30.716875 -69.4675 29.87125 -69 29 C-65.875 28.1875 -65.875 28.1875 -63 28 C-63.226875 26.906875 -63.45375 25.81375 -63.6875 24.6875 C-64 21 -64 21 -62.6875 19.0625 C-61 18 -61 18 -59 18 C-59.33 16.68 -59.66 15.36 -60 14 C-56.0949151 10.44992282 -53.02265357 9.18180084 -48 8 C-48.33 7.34 -48.66 6.68 -49 6 C-51.52733235 5.34444881 -51.52733235 5.34444881 -54 5 C-53.67 4.01 -53.34 3.02 -53 2 C-50.3125 1.1875 -50.3125 1.1875 -47 1 C-44.125 3 -44.125 3 -42 6 C-41.49942387 9.62917697 -41.22135688 11.85057444 -43.3125 14.9375 C-45 16 -45 16 -48 16 C-47.67 16.598125 -47.34 17.19625 -47 17.8125 C-46 20 -46 20 -46 23 C-45.34 23 -44.68 23 -44 23 C-42.375 25 -42.375 25 -41 27 C-40.67 26.01 -40.34 25.02 -40 24 C-38.68 24.33 -37.36 24.66 -36 25 C-35.67 26.32 -35.34 27.64 -35 29 C-33.0351761 28.4818964 -33.0351761 28.4818964 -31 27 C-30.54625 25.865625 -30.0925 24.73125 -29.625 23.5625 C-27.65760469 19.24936412 -26.17625293 18.91411593 -22 17 C-21.2575 15.6696875 -21.2575 15.6696875 -20.5 14.3125 C-19.7575 13.1678125 -19.7575 13.1678125 -19 12 C-15.8125 11.6875 -15.8125 11.6875 -13 12 C-13.226875 10.948125 -13.45375 9.89625 -13.6875 8.8125 C-14.03638738 4.55607398 -13.68152183 3.23631945 -11 0 C-7.27790029 -3.05743905 -4.19675337 -1.6934268 0 0 Z M-8 4 C-7.67 4.66 -7.34 5.32 -7 6 C-6.34 6 -5.68 6 -5 6 C-5 5.34 -5 4.68 -5 4 C-5.99 4 -6.98 4 -8 4 Z M-129 8 C-129.33 8.99 -129.66 9.98 -130 11 C-128.35 11 -126.7 11 -125 11 C-125.97850195 9.97895449 -126.97980427 8.9793879 -128 8 C-128.33 8 -128.66 8 -129 8 Z M-48 23 C-49.63676257 24.9600281 -49.63676257 24.9600281 -51 27 C-47.87802522 25.6910428 -47.87802522 25.6910428 -46 23 C-46.66 23 -47.32 23 -48 23 Z M-218 40 C-218 40.99 -218 41.98 -218 43 C-217.34 42.01 -216.68 41.02 -216 40 C-216.66 40 -217.32 40 -218 40 Z M-116 40 C-116.33 41.98 -116.66 43.96 -117 46 C-114.65712582 43.32752366 -114.65712582 43.32752366 -114 40 C-114.66 40 -115.32 40 -116 40 Z M98 41 C98.66 42.32 99.32 43.64 100 45 C100.66 44.01 101.32 43.02 102 42 C100.68 41.67 99.36 41.34 98 41 Z M154 44 C153.67 44.66 153.34 45.32 153 46 C153.66 46 154.32 46 155 46 C154.67 45.34 154.34 44.68 154 44 Z M-199 56 C-199.33 56.99 -199.66 57.98 -200 59 C-199.34 59 -198.68 59 -198 59 C-198.33 58.01 -198.66 57.02 -199 56 Z M59.375 58.1875 C56.76346267 60.75057235 56.76346267 60.75057235 56.6875 63.8125 C56.790625 64.534375 56.89375 65.25625 57 66 C60.33557632 63.0094833 62.15083921 60.06815373 64 56 C61.68657639 55.7866052 61.68657639 55.7866052 59.375 58.1875 Z M-189 59 C-189.33 60.32 -189.66 61.64 -190 63 C-188.68 62.34 -187.36 61.68 -186 61 C-186.33 60.34 -186.66 59.68 -187 59 C-187.66 59 -188.32 59 -189 59 Z M-187 65 C-187 65.66 -187 66.32 -187 67 C-186.01 67 -185.02 67 -184 67 C-184 66.34 -184 65.68 -184 65 C-184.99 65 -185.98 65 -187 65 Z M157 101 C157 101.66 157 102.32 157 103 C157.99 103.33 158.98 103.66 160 104 C160 103.01 160 102.02 160 101 C159.01 101 158.02 101 157 101 Z M-270.625 117.5 C-271.07875 117.995 -271.5325 118.49 -272 119 C-269.525 119.495 -269.525 119.495 -267 120 C-267 118.68 -267 117.36 -267 116 C-269.12364481 115.77390663 -269.12364481 115.77390663 -270.625 117.5 Z M233 129 C234 131 234 131 234 131 Z M-273 131 C-272.67 131.66 -272.34 132.32 -272 133 C-271.34 132.67 -270.68 132.34 -270 132 C-270.99 131.67 -271.98 131.34 -273 131 Z M239 202 C239 202.66 239 203.32 239 204 C239.66 204 240.32 204 241 204 C241 203.34 241 202.68 241 202 C240.34 202 239.68 202 239 202 Z M243 212 C243 212.66 243 213.32 243 214 C243.66 214 244.32 214 245 214 C245 213.34 245 212.68 245 212 C244.34 212 243.68 212 243 212 Z M255 275 C254.67 275.66 254.34 276.32 254 277 C254.66 277 255.32 277 256 277 C255.67 276.34 255.34 275.68 255 275 Z M282 362 C282 363.98 282 365.96 282 368 C282.66 368 283.32 368 284 368 C284 366.02 284 364.04 284 362 C283.34 362 282.68 362 282 362 Z M254 369 C254.33 369.66 254.66 370.32 255 371 C255.33 370.34 255.66 369.68 256 369 C255.34 369 254.68 369 254 369 Z M264 379 C264.66 379.66 265.32 380.32 266 381 C266 380.34 266 379.68 266 379 C265.34 379 264.68 379 264 379 Z M244 407 C244 407.66 244 408.32 244 409 C244.66 408.67 245.32 408.34 246 408 C245.34 407.67 244.68 407.34 244 407 Z M217 420 C217 422.83967231 217.40267181 425.23735711 218 428 C218.99 428.33 219.98 428.66 221 429 C221 426.69 221 424.38 221 422 C219.68 421.34 218.36 420.68 217 420 Z M263 426 C267 427 267 427 267 427 Z M193 459 C194.37485532 460.54166642 194.37485532 460.54166642 196 462 C196.66 462 197.32 462 198 462 C197.67 461.01 197.34 460.02 197 459 C195.68 459 194.36 459 193 459 Z M217 483 C217 483.99 217 484.98 217 486 C217.66 485.67 218.32 485.34 219 485 C218.34 484.34 217.68 483.68 217 483 Z M178 514 C178.33 514.66 178.66 515.32 179 516 C179.33 515.34 179.66 514.68 180 514 C179.34 514 178.68 514 178 514 Z " fill="#000000" transform="translate(539,24)" data-index="0" style="visibility: visible; opacity: 1;"></path>
<path d="M0 0 C1.32 0.33 2.64 0.66 4 1 C4 3.97 4 6.94 4 10 C4.99 9.01 5.98 8.02 7 7 C9.625 6.75 9.625 6.75 12 7 C13 8 13 8 13.125 11.8125 C13.10481499 14.08533177 13.0204287 15.92282492 12.4375 18.125 C11.79390243 20.8832753 12.43954923 23.26001843 13 26 C10.625 26.125 10.625 26.125 8 26 C6 24 6 24 5.875 20.875 C5.91625 19.92625 5.9575 18.9775 6 18 C5.13375 17.9071875 5.13375 17.9071875 4.25 17.8125 C0.93830422 16.61660986 -0.18391731 14.98356441 -2 12 C-2.4901127 7.42561479 -2.00356948 4.13236205 0 0 Z " fill="#000000" transform="translate(237,108)" data-index="1" style="visibility: visible;"></path>
<path d="M0 0 C3 3 3 3 3.29296875 5.48046875 C3.25816406 6.37378906 3.22335937 7.26710938 3.1875 8.1875 C3.16042969 9.08855469 3.13335938 9.98960937 3.10546875 10.91796875 C3.07066406 11.60503906 3.03585937 12.29210937 3 13 C2.01 13.33 1.02 13.66 0 14 C0 9.38 0 4.76 0 0 Z " fill="#000000" transform="translate(839,355)" data-index="2" style="visibility: visible;"></path>
<path d="M0 0 C1.32 1.32 2.64 2.64 4 4 C2.52307692 8.67692308 2.52307692 8.67692308 -0.125 10.3125 C-1.053125 10.6528125 -1.053125 10.6528125 -2 11 C-2 8 -2 8 -1 7 C-0.63239269 4.67182036 -0.29758419 2.3381615 0 0 Z " fill="#000000" transform="translate(832,383)" data-index="3" style="visibility: visible;"></path>
</svg>